
<svg version="1.0" xmlns="http://www.w3.org/2000/svg"
 width="290.000000pt" height="286.000000pt" viewBox="0 0 290.000000 286.000000"
 preserveAspectRatio="xMidYMid meet">

<g transform="translate(0.000000,286.000000) scale(0.100000,-0.100000)"
fill="#000000" stroke="none">
<path d="M939 2796 c-469 -184 -801 -577 -904 -1071 -23 -111 -31 -320 -16
-441 39 -313 168 -590 378 -814 195 -207 428 -345 703 -418 134 -35 137 -36
345 -36 188 0 220 2 305 23 315 78 540 206 752 429 190 200 325 472 372 751
24 144 20 157 -19 62 -142 -345 -418 -601 -769 -716 -145 -47 -231 -60 -403
-60 -172 0 -172 0 -217 86 -33 65 -33 75 4 94 28 15 33 14 61 -2 31 -18 31
-18 52 8 12 15 31 29 42 31 25 5 23 46 -7 166 -22 90 -20 101 30 121 28 12 59
63 81 132 14 46 14 46 -7 44 -27 -2 -39 -13 -47 -42 -7 -29 -32 -63 -47 -63
-4 0 -6 11 -2 24 3 14 3 30 -1 36 -10 15 -84 -70 -85 -97 0 -19 -27 -57 -76
-110 -16 -17 -54 -4 -54 18 0 10 -13 25 -30 34 -33 17 -37 33 -43 161 l-3 80
40 0 c39 -1 41 0 44 32 2 19 12 48 22 66 13 24 15 37 8 51 -6 10 -12 40 -14
67 -5 66 -26 108 -77 146 -69 54 -100 54 -179 2 -61 -40 -74 -73 -58 -141 17
-72 7 -209 -17 -223 -77 -43 -127 -171 -139 -358 -4 -60 -10 -111 -14 -113
-11 -7 -143 111 -202 180 -143 167 -246 382 -284 594 -9 50 -16 144 -16 226 0
263 67 484 215 705 63 95 230 263 322 323 82 55 71 58 -46 13z"/>
</g>
</svg>
